<?xml version="1.0" encoding="utf-8" standalone="no"?>
<!DOCTYPE svg PUBLIC "-//W3C//DTD SVG 1.1//EN"
  "http://www.w3.org/Graphics/SVG/1.1/DTD/svg11.dtd">
<svg xmlns:xlink="http://www.w3.org/1999/xlink" width="411.285625pt" height="438.355387pt" viewBox="0 0 411.285625 438.355387" xmlns="http://www.w3.org/2000/svg" version="1.1">
 <metadata>
  <rdf:RDF xmlns:dc="http://purl.org/dc/elements/1.1/" xmlns:cc="http://creativecommons.org/ns#" xmlns:rdf="http://www.w3.org/1999/02/22-rdf-syntax-ns#">
   <cc:Work>
    <dc:type rdf:resource="http://purl.org/dc/dcmitype/StillImage"/>
    <dc:date>2023-11-17T23:23:03.866636</dc:date>
    <dc:format>image/svg+xml</dc:format>
    <dc:creator>
     <cc:Agent>
      <dc:title>Matplotlib v3.7.1, https://matplotlib.org/</dc:title>
     </cc:Agent>
    </dc:creator>
   </cc:Work>
  </rdf:RDF>
 </metadata>
 <defs>
  <style type="text/css">*{stroke-linejoin: round; stroke-linecap: butt}</style>
 </defs>
 <g id="figure_1">
  <g id="patch_1">
   <path d="M 0 438.355387 
L 411.285625 438.355387 
L 411.285625 0 
L 0 0 
z
" style="fill: #ffffff"/>
  </g>
  <g id="axes_1">
   <g id="patch_2">
    <path d="M 46.965625 273.312 
L 404.085625 273.312 
L 404.085625 7.2 
L 46.965625 7.2 
z
" style="fill: #ffffff"/>
   </g>
   <g id="PathCollection_1">
    <defs>
     <path id="mf3f1beec25" d="M 0 3 
C 0.795609 3 1.55874 2.683901 2.12132 2.12132 
C 2.683901 1.55874 3 0.795609 3 0 
C 3 -0.795609 2.683901 -1.55874 2.12132 -2.12132 
C 1.55874 -2.683901 0.795609 -3 0 -3 
C -0.795609 -3 -1.55874 -2.683901 -2.12132 -2.12132 
C -2.683901 -1.55874 -3 -0.795609 -3 0 
C -3 0.795609 -2.683901 1.55874 -2.12132 2.12132 
C -1.55874 2.683901 -0.795609 3 0 3 
z
" style="stroke: #d62728"/>
    </defs>
    <g clip-path="url(#p1c1e204992)">
     <use xlink:href="#mf3f1beec25" x="124.730186" y="168.311361" style="fill: #d62728; stroke: #d62728"/>
    </g>
   </g>
   <g id="PathCollection_2">
    <defs>
     <path id="me9bbe74e3f" d="M -0.615789 2.329263 
L 2.166947 2.329263 
L 2.166947 3 
L -1.574526 3 
L -1.574526 2.329263 
Q -1.121053 1.859368 -0.337895 1.068632 
Q 0.446526 0.276632 0.647368 0.046737 
Q 1.030105 -0.382737 1.181684 -0.680842 
Q 1.334526 -0.978947 1.334526 -1.266947 
Q 1.334526 -1.736842 1.004842 -2.032421 
Q 0.675158 -2.329263 0.145895 -2.329263 
Q -0.229263 -2.329263 -0.646105 -2.199158 
Q -1.061684 -2.069053 -1.535368 -1.803789 
L -1.535368 -2.609684 
Q -1.054105 -2.802947 -0.636 -2.901474 
Q -0.216632 -3 0.130737 -3 
Q 1.046526 -3 1.590947 -2.541474 
Q 2.135368 -2.084211 2.135368 -1.318737 
Q 2.135368 -0.954947 1.998947 -0.629053 
Q 1.863789 -0.304421 1.503789 0.137684 
Q 1.405263 0.252632 0.876 0.799579 
Q 0.348 1.346526 -0.615789 2.329263 
z
" style="stroke: #d62728"/>
    </defs>
    <g clip-path="url(#p1c1e204992)">
     <use xlink:href="#me9bbe74e3f" x="151.169423" y="155.094959" style="fill: #d62728; stroke: #d62728"/>
    </g>
   </g>
   <g id="PathCollection_3">
    <defs>
     <path id="m7c820e1e9c" d="M -1.343914 -3 
L 1.781585 -3 
L 1.781585 -2.328989 
L -0.614883 -2.328989 
L -0.614883 -0.887324 
Q -0.442085 -0.946605 -0.269287 -0.975615 
Q -0.095228 -1.004625 0.078831 -1.004625 
Q 1.063906 -1.004625 1.639058 -0.464789 
Q 2.215472 0.075047 2.215472 0.997057 
Q 2.215472 1.946815 1.623923 2.474038 
Q 1.032373 3 -0.043515 3 
Q -0.414337 3 -0.799033 2.936935 
Q -1.182468 2.87387 -1.59239 2.74774 
L -1.59239 1.946815 
Q -1.237965 2.139794 -0.859575 2.234391 
Q -0.481186 2.328989 -0.059912 2.328989 
Q 0.622451 2.328989 1.01976 1.97078 
Q 1.418331 1.612571 1.418331 0.997057 
Q 1.418331 0.382804 1.01976 0.024595 
Q 0.622451 -0.334875 -0.059912 -0.334875 
Q -0.37902 -0.334875 -0.696868 -0.264242 
Q -1.013454 -0.193609 -1.343914 -0.043515 
L -1.343914 -3 
z
" style="stroke: #d62728"/>
    </defs>
    <g clip-path="url(#p1c1e204992)">
     <use xlink:href="#m7c820e1e9c" x="172.688726" y="138.926769" style="fill: #d62728; stroke: #d62728"/>
    </g>
   </g>
   <g id="PathCollection_4">
    <defs>
     <path id="m3aeae7ae13" d="M 0.260897 -2.380293 
Q -0.342698 -2.380293 -0.647593 -1.785375 
Q -0.95125 -1.191696 -0.95125 0.001859 
Q -0.95125 1.190457 -0.647593 1.785375 
Q -0.342698 2.380293 0.260897 2.380293 
Q 0.869448 2.380293 1.173105 1.785375 
Q 1.478 1.190457 1.478 0.001859 
Q 1.478 -1.191696 1.173105 -1.785375 
Q 0.869448 -2.380293 0.260897 -2.380293 
z
M 0.260897 -3 
Q 1.233836 -3 1.746953 -2.230324 
Q 2.26007 -1.461888 2.26007 0.001859 
Q 2.26007 1.461888 1.746953 2.231564 
Q 1.233836 3 0.260897 3 
Q -0.710804 3 -1.223921 2.231564 
Q -1.737038 1.461888 -1.737038 0.001859 
Q -1.737038 -1.461888 -1.223921 -2.230324 
Q -0.710804 -3 0.260897 -3 
z
" style="stroke: #d62728"/>
    </defs>
    <g clip-path="url(#p1c1e204992)">
     <use xlink:href="#m3aeae7ae13" x="190.081632" y="110.569846" style="fill: #d62728; stroke: #d62728"/>
    </g>
   </g>
   <g id="PathCollection_5">
    <defs>
     <path id="m5343bdfd34" d="M 0 3 
C 0.795609 3 1.55874 2.683901 2.12132 2.12132 
C 2.683901 1.55874 3 0.795609 3 0 
C 3 -0.795609 2.683901 -1.55874 2.12132 -2.12132 
C 1.55874 -2.683901 0.795609 -3 0 -3 
C -0.795609 -3 -1.55874 -2.683901 -2.12132 -2.12132 
C -2.683901 -1.55874 -3 -0.795609 -3 0 
C -3 0.795609 -2.683901 1.55874 -2.12132 2.12132 
C -1.55874 2.683901 -0.795609 3 0 3 
z
" style="stroke: #9467bd"/>
    </defs>
    <g clip-path="url(#p1c1e204992)">
     <use xlink:href="#m5343bdfd34" x="221.794289" y="108" style="fill: #9467bd; stroke: #9467bd"/>
    </g>
   </g>
   <g id="PathCollection_6">
    <defs>
     <path id="mc057d803d5" d="M -0.615789 2.329263 
L 2.166947 2.329263 
L 2.166947 3 
L -1.574526 3 
L -1.574526 2.329263 
Q -1.121053 1.859368 -0.337895 1.068632 
Q 0.446526 0.276632 0.647368 0.046737 
Q 1.030105 -0.382737 1.181684 -0.680842 
Q 1.334526 -0.978947 1.334526 -1.266947 
Q 1.334526 -1.736842 1.004842 -2.032421 
Q 0.675158 -2.329263 0.145895 -2.329263 
Q -0.229263 -2.329263 -0.646105 -2.199158 
Q -1.061684 -2.069053 -1.535368 -1.803789 
L -1.535368 -2.609684 
Q -1.054105 -2.802947 -0.636 -2.901474 
Q -0.216632 -3 0.130737 -3 
Q 1.046526 -3 1.590947 -2.541474 
Q 2.135368 -2.084211 2.135368 -1.318737 
Q 2.135368 -0.954947 1.998947 -0.629053 
Q 1.863789 -0.304421 1.503789 0.137684 
Q 1.405263 0.252632 0.876 0.799579 
Q 0.348 1.346526 -0.615789 2.329263 
z
" style="stroke: #9467bd"/>
    </defs>
    <g clip-path="url(#p1c1e204992)">
     <use xlink:href="#mc057d803d5" x="247.209141" y="75.072" style="fill: #9467bd; stroke: #9467bd"/>
    </g>
   </g>
   <g id="PathCollection_7">
    <defs>
     <path id="m01cbab6f46" d="M -1.343914 -3 
L 1.781585 -3 
L 1.781585 -2.328989 
L -0.614883 -2.328989 
L -0.614883 -0.887324 
Q -0.442085 -0.946605 -0.269287 -0.975615 
Q -0.095228 -1.004625 0.078831 -1.004625 
Q 1.063906 -1.004625 1.639058 -0.464789 
Q 2.215472 0.075047 2.215472 0.997057 
Q 2.215472 1.946815 1.623923 2.474038 
Q 1.032373 3 -0.043515 3 
Q -0.414337 3 -0.799033 2.936935 
Q -1.182468 2.87387 -1.59239 2.74774 
L -1.59239 1.946815 
Q -1.237965 2.139794 -0.859575 2.234391 
Q -0.481186 2.328989 -0.059912 2.328989 
Q 0.622451 2.328989 1.01976 1.97078 
Q 1.418331 1.612571 1.418331 0.997057 
Q 1.418331 0.382804 1.01976 0.024595 
Q 0.622451 -0.334875 -0.059912 -0.334875 
Q -0.37902 -0.334875 -0.696868 -0.264242 
Q -1.013454 -0.193609 -1.343914 -0.043515 
L -1.343914 -3 
z
" style="stroke: #9467bd"/>
    </defs>
    <g clip-path="url(#p1c1e204992)">
     <use xlink:href="#m01cbab6f46" x="267.855552" y="50.88" style="fill: #9467bd; stroke: #9467bd"/>
    </g>
   </g>
   <g id="PathCollection_8">
    <defs>
     <path id="mc1cb187dbd" d="M 0.260897 -2.380293 
Q -0.342698 -2.380293 -0.647593 -1.785375 
Q -0.95125 -1.191696 -0.95125 0.001859 
Q -0.95125 1.190457 -0.647593 1.785375 
Q -0.342698 2.380293 0.260897 2.380293 
Q 0.869448 2.380293 1.173105 1.785375 
Q 1.478 1.190457 1.478 0.001859 
Q 1.478 -1.191696 1.173105 -1.785375 
Q 0.869448 -2.380293 0.260897 -2.380293 
z
M 0.260897 -3 
Q 1.233836 -3 1.746953 -2.230324 
Q 2.26007 -1.461888 2.26007 0.001859 
Q 2.26007 1.461888 1.746953 2.231564 
Q 1.233836 3 0.260897 3 
Q -0.710804 3 -1.223921 2.231564 
Q -1.737038 1.461888 -1.737038 0.001859 
Q -1.737038 -1.461888 -1.223921 -2.230324 
Q -0.710804 -3 0.260897 -3 
z
" style="stroke: #9467bd"/>
    </defs>
    <g clip-path="url(#p1c1e204992)">
     <use xlink:href="#mc1cb187dbd" x="292.606718" y="38.059878" style="fill: #9467bd; stroke: #9467bd"/>
    </g>
   </g>
   <g id="PathCollection_9">
    <defs>
     <path id="mab4484c167" d="M 0 -3 
L -3 3 
L 3 3 
z
" style="stroke: #7f7f7f"/>
    </defs>
    <g clip-path="url(#p1c1e204992)">
     <use xlink:href="#mab4484c167" x="132.05959" y="177.284571" style="fill: #7f7f7f; stroke: #7f7f7f"/>
    </g>
   </g>
   <g id="PathCollection_10">
    <defs>
     <path id="m5902936f13" d="M -0.615789 2.329263 
L 2.166947 2.329263 
L 2.166947 3 
L -1.574526 3 
L -1.574526 2.329263 
Q -1.121053 1.859368 -0.337895 1.068632 
Q 0.446526 0.276632 0.647368 0.046737 
Q 1.030105 -0.382737 1.181684 -0.680842 
Q 1.334526 -0.978947 1.334526 -1.266947 
Q 1.334526 -1.736842 1.004842 -2.032421 
Q 0.675158 -2.329263 0.145895 -2.329263 
Q -0.229263 -2.329263 -0.646105 -2.199158 
Q -1.061684 -2.069053 -1.535368 -1.803789 
L -1.535368 -2.609684 
Q -1.054105 -2.802947 -0.636 -2.901474 
Q -0.216632 -3 0.130737 -3 
Q 1.046526 -3 1.590947 -2.541474 
Q 2.135368 -2.084211 2.135368 -1.318737 
Q 2.135368 -0.954947 1.998947 -0.629053 
Q 1.863789 -0.304421 1.503789 0.137684 
Q 1.405263 0.252632 0.876 0.799579 
Q 0.348 1.346526 -0.615789 2.329263 
z
" style="stroke: #7f7f7f"/>
    </defs>
    <g clip-path="url(#p1c1e204992)">
     <use xlink:href="#m5902936f13" x="196.206301" y="136.465231" style="fill: #7f7f7f; stroke: #7f7f7f"/>
    </g>
   </g>
   <g id="PathCollection_11">
    <defs>
     <path id="m47534adb05" d="M -1.343914 -3 
L 1.781585 -3 
L 1.781585 -2.328989 
L -0.614883 -2.328989 
L -0.614883 -0.887324 
Q -0.442085 -0.946605 -0.269287 -0.975615 
Q -0.095228 -1.004625 0.078831 -1.004625 
Q 1.063906 -1.004625 1.639058 -0.464789 
Q 2.215472 0.075047 2.215472 0.997057 
Q 2.215472 1.946815 1.623923 2.474038 
Q 1.032373 3 -0.043515 3 
Q -0.414337 3 -0.799033 2.936935 
Q -1.182468 2.87387 -1.59239 2.74774 
L -1.59239 1.946815 
Q -1.237965 2.139794 -0.859575 2.234391 
Q -0.481186 2.328989 -0.059912 2.328989 
Q 0.622451 2.328989 1.01976 1.97078 
Q 1.418331 1.612571 1.418331 0.997057 
Q 1.418331 0.382804 1.01976 0.024595 
Q 0.622451 -0.334875 -0.059912 -0.334875 
Q -0.37902 -0.334875 -0.696868 -0.264242 
Q -1.013454 -0.193609 -1.343914 -0.043515 
L -1.343914 -3 
z
" style="stroke: #7f7f7f"/>
    </defs>
    <g clip-path="url(#p1c1e204992)">
     <use xlink:href="#m47534adb05" x="242.693189" y="114.844235" style="fill: #7f7f7f; stroke: #7f7f7f"/>
    </g>
   </g>
   <g id="PathCollection_12">
    <defs>
     <path id="mb8946b889d" d="M 0.260897 -2.380293 
Q -0.342698 -2.380293 -0.647593 -1.785375 
Q -0.95125 -1.191696 -0.95125 0.001859 
Q -0.95125 1.190457 -0.647593 1.785375 
Q -0.342698 2.380293 0.260897 2.380293 
Q 0.869448 2.380293 1.173105 1.785375 
Q 1.478 1.190457 1.478 0.001859 
Q 1.478 -1.191696 1.173105 -1.785375 
Q 0.869448 -2.380293 0.260897 -2.380293 
z
M 0.260897 -3 
Q 1.233836 -3 1.746953 -2.230324 
Q 2.26007 -1.461888 2.26007 0.001859 
Q 2.26007 1.461888 1.746953 2.231564 
Q 1.233836 3 0.260897 3 
Q -0.710804 3 -1.223921 2.231564 
Q -1.737038 1.461888 -1.737038 0.001859 
Q -1.737038 -1.461888 -1.223921 -2.230324 
Q -0.710804 -3 0.260897 -3 
z
" style="stroke: #7f7f7f"/>
    </defs>
    <g clip-path="url(#p1c1e204992)">
     <use xlink:href="#mb8946b889d" x="283.069836" y="96.117393" style="fill: #7f7f7f; stroke: #7f7f7f"/>
    </g>
   </g>
   <g id="PathCollection_13">
    <defs>
     <path id="m9c79781ebf" d="M 0 0 
L 3 0 
M 0 0 
L -1.5 -2.4 
M 0 0 
L -1.5 2.4 
" style="stroke: #000000; stroke-width: 1.5"/>
    </defs>
    <g clip-path="url(#p1c1e204992)">
     <use xlink:href="#m9c79781ebf" x="63.198352" y="261.216" style="stroke: #000000; stroke-width: 1.5"/>
     <use xlink:href="#m9c79781ebf" x="77.381227" y="261.216" style="stroke: #000000; stroke-width: 1.5"/>
     <use xlink:href="#m9c79781ebf" x="91.947696" y="261.115386" style="stroke: #000000; stroke-width: 1.5"/>
     <use xlink:href="#m9c79781ebf" x="106.471241" y="259.809538" style="stroke: #000000; stroke-width: 1.5"/>
     <use xlink:href="#m9c79781ebf" x="120.970981" y="256.999214" style="stroke: #000000; stroke-width: 1.5"/>
     <use xlink:href="#m9c79781ebf" x="135.463867" y="251.981126" style="stroke: #000000; stroke-width: 1.5"/>
     <use xlink:href="#m9c79781ebf" x="149.581208" y="245.68605" style="stroke: #000000; stroke-width: 1.5"/>
     <use xlink:href="#m9c79781ebf" x="164.017522" y="236.737204" style="stroke: #000000; stroke-width: 1.5"/>
     <use xlink:href="#m9c79781ebf" x="178.554451" y="227.703981" style="stroke: #000000; stroke-width: 1.5"/>
     <use xlink:href="#m9c79781ebf" x="193.006042" y="218.870951" style="stroke: #000000; stroke-width: 1.5"/>
     <use xlink:href="#m9c79781ebf" x="207.515924" y="205.88417" style="stroke: #000000; stroke-width: 1.5"/>
     <use xlink:href="#m9c79781ebf" x="221.486612" y="193.087165" style="stroke: #000000; stroke-width: 1.5"/>
     <use xlink:href="#m9c79781ebf" x="236.259693" y="181.519853" style="stroke: #000000; stroke-width: 1.5"/>
     <use xlink:href="#m9c79781ebf" x="250.947122" y="166.023985" style="stroke: #000000; stroke-width: 1.5"/>
     <use xlink:href="#m9c79781ebf" x="265.312109" y="154.339751" style="stroke: #000000; stroke-width: 1.5"/>
     <use xlink:href="#m9c79781ebf" x="279.683822" y="140.485843" style="stroke: #000000; stroke-width: 1.5"/>
     <use xlink:href="#m9c79781ebf" x="294.366585" y="121.645596" style="stroke: #000000; stroke-width: 1.5"/>
     <use xlink:href="#m9c79781ebf" x="308.548475" y="106.982327" style="stroke: #000000; stroke-width: 1.5"/>
     <use xlink:href="#m9c79781ebf" x="323.154832" y="94.185256" style="stroke: #000000; stroke-width: 1.5"/>
     <use xlink:href="#m9c79781ebf" x="337.992525" y="75.003723" style="stroke: #000000; stroke-width: 1.5"/>
     <use xlink:href="#m9c79781ebf" x="352.213311" y="59.927867" style="stroke: #000000; stroke-width: 1.5"/>
     <use xlink:href="#m9c79781ebf" x="366.325622" y="45.42955" style="stroke: #000000; stroke-width: 1.5"/>
    </g>
   </g>
   <g id="PathCollection_14">
    <defs>
     <path id="m8c7f926924" d="M 0 -3 
L -0.673542 -0.927051 
L -2.85317 -0.927051 
L -1.089814 0.354102 
L -1.763356 2.427051 
L -0 1.145898 
L 1.763356 2.427051 
L 1.089814 0.354102 
L 2.85317 -0.927051 
L 0.673542 -0.927051 
z
" style="stroke: #000000"/>
    </defs>
    <g clip-path="url(#p1c1e204992)">
     <use xlink:href="#m8c7f926924" x="387.852898" y="19.296" style="stroke: #000000"/>
    </g>
   </g>
   <g id="matplotlib.axis_1">
    <g id="xtick_1">
     <g id="line2d_1">
      <defs>
       <path id="m20369e409c" d="M 0 0 
L 0 3.5 
" style="stroke: #000000; stroke-width: 0.8"/>
      </defs>
      <g>
       <use xlink:href="#m20369e409c" x="55.966527" y="273.312" style="stroke: #000000; stroke-width: 0.8"/>
      </g>
     </g>
     <g id="text_1">
      <!-- 0 -->
      <g transform="translate(52.785277 287.910437) scale(0.1 -0.1)">
       <defs>
        <path id="DejaVuSans-30" d="M 2034 4250 
Q 1547 4250 1301 3770 
Q 1056 3291 1056 2328 
Q 1056 1369 1301 889 
Q 1547 409 2034 409 
Q 2525 409 2770 889 
Q 3016 1369 3016 2328 
Q 3016 3291 2770 3770 
Q 2525 4250 2034 4250 
z
M 2034 4750 
Q 2819 4750 3233 4129 
Q 3647 3509 3647 2328 
Q 3647 1150 3233 529 
Q 2819 -91 2034 -91 
Q 1250 -91 836 529 
Q 422 1150 422 2328 
Q 422 3509 836 4129 
Q 1250 4750 2034 4750 
z
" transform="scale(0.015625)"/>
       </defs>
       <use xlink:href="#DejaVuSans-30"/>
      </g>
     </g>
    </g>
    <g id="xtick_2">
     <g id="line2d_2">
      <g>
       <use xlink:href="#m20369e409c" x="128.106329" y="273.312" style="stroke: #000000; stroke-width: 0.8"/>
      </g>
     </g>
     <g id="text_2">
      <!-- 10000 -->
      <g transform="translate(112.200079 287.910437) scale(0.1 -0.1)">
       <defs>
        <path id="DejaVuSans-31" d="M 794 531 
L 1825 531 
L 1825 4091 
L 703 3866 
L 703 4441 
L 1819 4666 
L 2450 4666 
L 2450 531 
L 3481 531 
L 3481 0 
L 794 0 
L 794 531 
z
" transform="scale(0.015625)"/>
       </defs>
       <use xlink:href="#DejaVuSans-31"/>
       <use xlink:href="#DejaVuSans-30" x="63.623047"/>
       <use xlink:href="#DejaVuSans-30" x="127.246094"/>
       <use xlink:href="#DejaVuSans-30" x="190.869141"/>
       <use xlink:href="#DejaVuSans-30" x="254.492188"/>
      </g>
     </g>
    </g>
    <g id="xtick_3">
     <g id="line2d_3">
      <g>
       <use xlink:href="#m20369e409c" x="200.24613" y="273.312" style="stroke: #000000; stroke-width: 0.8"/>
      </g>
     </g>
     <g id="text_3">
      <!-- 20000 -->
      <g transform="translate(184.33988 287.910437) scale(0.1 -0.1)">
       <defs>
        <path id="DejaVuSans-32" d="M 1228 531 
L 3431 531 
L 3431 0 
L 469 0 
L 469 531 
Q 828 903 1448 1529 
Q 2069 2156 2228 2338 
Q 2531 2678 2651 2914 
Q 2772 3150 2772 3378 
Q 2772 3750 2511 3984 
Q 2250 4219 1831 4219 
Q 1534 4219 1204 4116 
Q 875 4013 500 3803 
L 500 4441 
Q 881 4594 1212 4672 
Q 1544 4750 1819 4750 
Q 2544 4750 2975 4387 
Q 3406 4025 3406 3419 
Q 3406 3131 3298 2873 
Q 3191 2616 2906 2266 
Q 2828 2175 2409 1742 
Q 1991 1309 1228 531 
z
" transform="scale(0.015625)"/>
       </defs>
       <use xlink:href="#DejaVuSans-32"/>
       <use xlink:href="#DejaVuSans-30" x="63.623047"/>
       <use xlink:href="#DejaVuSans-30" x="127.246094"/>
       <use xlink:href="#DejaVuSans-30" x="190.869141"/>
       <use xlink:href="#DejaVuSans-30" x="254.492188"/>
      </g>
     </g>
    </g>
    <g id="xtick_4">
     <g id="line2d_4">
      <g>
       <use xlink:href="#m20369e409c" x="272.385931" y="273.312" style="stroke: #000000; stroke-width: 0.8"/>
      </g>
     </g>
     <g id="text_4">
      <!-- 30000 -->
      <g transform="translate(256.479681 287.910437) scale(0.1 -0.1)">
       <defs>
        <path id="DejaVuSans-33" d="M 2597 2516 
Q 3050 2419 3304 2112 
Q 3559 1806 3559 1356 
Q 3559 666 3084 287 
Q 2609 -91 1734 -91 
Q 1441 -91 1130 -33 
Q 819 25 488 141 
L 488 750 
Q 750 597 1062 519 
Q 1375 441 1716 441 
Q 2309 441 2620 675 
Q 2931 909 2931 1356 
Q 2931 1769 2642 2001 
Q 2353 2234 1838 2234 
L 1294 2234 
L 1294 2753 
L 1863 2753 
Q 2328 2753 2575 2939 
Q 2822 3125 2822 3475 
Q 2822 3834 2567 4026 
Q 2313 4219 1838 4219 
Q 1578 4219 1281 4162 
Q 984 4106 628 3988 
L 628 4550 
Q 988 4650 1302 4700 
Q 1616 4750 1894 4750 
Q 2613 4750 3031 4423 
Q 3450 4097 3450 3541 
Q 3450 3153 3228 2886 
Q 3006 2619 2597 2516 
z
" transform="scale(0.015625)"/>
       </defs>
       <use xlink:href="#DejaVuSans-33"/>
       <use xlink:href="#DejaVuSans-30" x="63.623047"/>
       <use xlink:href="#DejaVuSans-30" x="127.246094"/>
       <use xlink:href="#DejaVuSans-30" x="190.869141"/>
       <use xlink:href="#DejaVuSans-30" x="254.492188"/>
      </g>
     </g>
    </g>
    <g id="xtick_5">
     <g id="line2d_5">
      <g>
       <use xlink:href="#m20369e409c" x="344.525733" y="273.312" style="stroke: #000000; stroke-width: 0.8"/>
      </g>
     </g>
     <g id="text_5">
      <!-- 40000 -->
      <g transform="translate(328.619483 287.910437) scale(0.1 -0.1)">
       <defs>
        <path id="DejaVuSans-34" d="M 2419 4116 
L 825 1625 
L 2419 1625 
L 2419 4116 
z
M 2253 4666 
L 3047 4666 
L 3047 1625 
L 3713 1625 
L 3713 1100 
L 3047 1100 
L 3047 0 
L 2419 0 
L 2419 1100 
L 313 1100 
L 313 1709 
L 2253 4666 
z
" transform="scale(0.015625)"/>
       </defs>
       <use xlink:href="#DejaVuSans-34"/>
       <use xlink:href="#DejaVuSans-30" x="63.623047"/>
       <use xlink:href="#DejaVuSans-30" x="127.246094"/>
       <use xlink:href="#DejaVuSans-30" x="190.869141"/>
       <use xlink:href="#DejaVuSans-30" x="254.492188"/>
      </g>
     </g>
    </g>
    <g id="text_6">
     <!-- Number of Equivalence Classes Train+Test -->
     <g transform="translate(119.024844 301.588562) scale(0.1 -0.1)">
      <defs>
       <path id="DejaVuSans-4e" d="M 628 4666 
L 1478 4666 
L 3547 763 
L 3547 4666 
L 4159 4666 
L 4159 0 
L 3309 0 
L 1241 3903 
L 1241 0 
L 628 0 
L 628 4666 
z
" transform="scale(0.015625)"/>
       <path id="DejaVuSans-75" d="M 544 1381 
L 544 3500 
L 1119 3500 
L 1119 1403 
Q 1119 906 1312 657 
Q 1506 409 1894 409 
Q 2359 409 2629 706 
Q 2900 1003 2900 1516 
L 2900 3500 
L 3475 3500 
L 3475 0 
L 2900 0 
L 2900 538 
Q 2691 219 2414 64 
Q 2138 -91 1772 -91 
Q 1169 -91 856 284 
Q 544 659 544 1381 
z
M 1991 3584 
L 1991 3584 
z
" transform="scale(0.015625)"/>
       <path id="DejaVuSans-6d" d="M 3328 2828 
Q 3544 3216 3844 3400 
Q 4144 3584 4550 3584 
Q 5097 3584 5394 3201 
Q 5691 2819 5691 2113 
L 5691 0 
L 5113 0 
L 5113 2094 
Q 5113 2597 4934 2840 
Q 4756 3084 4391 3084 
Q 3944 3084 3684 2787 
Q 3425 2491 3425 1978 
L 3425 0 
L 2847 0 
L 2847 2094 
Q 2847 2600 2669 2842 
Q 2491 3084 2119 3084 
Q 1678 3084 1418 2786 
Q 1159 2488 1159 1978 
L 1159 0 
L 581 0 
L 581 3500 
L 1159 3500 
L 1159 2956 
Q 1356 3278 1631 3431 
Q 1906 3584 2284 3584 
Q 2666 3584 2933 3390 
Q 3200 3197 3328 2828 
z
" transform="scale(0.015625)"/>
       <path id="DejaVuSans-62" d="M 3116 1747 
Q 3116 2381 2855 2742 
Q 2594 3103 2138 3103 
Q 1681 3103 1420 2742 
Q 1159 2381 1159 1747 
Q 1159 1113 1420 752 
Q 1681 391 2138 391 
Q 2594 391 2855 752 
Q 3116 1113 3116 1747 
z
M 1159 2969 
Q 1341 3281 1617 3432 
Q 1894 3584 2278 3584 
Q 2916 3584 3314 3078 
Q 3713 2572 3713 1747 
Q 3713 922 3314 415 
Q 2916 -91 2278 -91 
Q 1894 -91 1617 61 
Q 1341 213 1159 525 
L 1159 0 
L 581 0 
L 581 4863 
L 1159 4863 
L 1159 2969 
z
" transform="scale(0.015625)"/>
       <path id="DejaVuSans-65" d="M 3597 1894 
L 3597 1613 
L 953 1613 
Q 991 1019 1311 708 
Q 1631 397 2203 397 
Q 2534 397 2845 478 
Q 3156 559 3463 722 
L 3463 178 
Q 3153 47 2828 -22 
Q 2503 -91 2169 -91 
Q 1331 -91 842 396 
Q 353 884 353 1716 
Q 353 2575 817 3079 
Q 1281 3584 2069 3584 
Q 2775 3584 3186 3129 
Q 3597 2675 3597 1894 
z
M 3022 2063 
Q 3016 2534 2758 2815 
Q 2500 3097 2075 3097 
Q 1594 3097 1305 2825 
Q 1016 2553 972 2059 
L 3022 2063 
z
" transform="scale(0.015625)"/>
       <path id="DejaVuSans-72" d="M 2631 2963 
Q 2534 3019 2420 3045 
Q 2306 3072 2169 3072 
Q 1681 3072 1420 2755 
Q 1159 2438 1159 1844 
L 1159 0 
L 581 0 
L 581 3500 
L 1159 3500 
L 1159 2956 
Q 1341 3275 1631 3429 
Q 1922 3584 2338 3584 
Q 2397 3584 2469 3576 
Q 2541 3569 2628 3553 
L 2631 2963 
z
" transform="scale(0.015625)"/>
       <path id="DejaVuSans-20" transform="scale(0.015625)"/>
       <path id="DejaVuSans-6f" d="M 1959 3097 
Q 1497 3097 1228 2736 
Q 959 2375 959 1747 
Q 959 1119 1226 758 
Q 1494 397 1959 397 
Q 2419 397 2687 759 
Q 2956 1122 2956 1747 
Q 2956 2369 2687 2733 
Q 2419 3097 1959 3097 
z
M 1959 3584 
Q 2709 3584 3137 3096 
Q 3566 2609 3566 1747 
Q 3566 888 3137 398 
Q 2709 -91 1959 -91 
Q 1206 -91 779 398 
Q 353 888 353 1747 
Q 353 2609 779 3096 
Q 1206 3584 1959 3584 
z
" transform="scale(0.015625)"/>
       <path id="DejaVuSans-66" d="M 2375 4863 
L 2375 4384 
L 1825 4384 
Q 1516 4384 1395 4259 
Q 1275 4134 1275 3809 
L 1275 3500 
L 2222 3500 
L 2222 3053 
L 1275 3053 
L 1275 0 
L 697 0 
L 697 3053 
L 147 3053 
L 147 3500 
L 697 3500 
L 697 3744 
Q 697 4328 969 4595 
Q 1241 4863 1831 4863 
L 2375 4863 
z
" transform="scale(0.015625)"/>
       <path id="DejaVuSans-45" d="M 628 4666 
L 3578 4666 
L 3578 4134 
L 1259 4134 
L 1259 2753 
L 3481 2753 
L 3481 2222 
L 1259 2222 
L 1259 531 
L 3634 531 
L 3634 0 
L 628 0 
L 628 4666 
z
" transform="scale(0.015625)"/>
       <path id="DejaVuSans-71" d="M 947 1747 
Q 947 1113 1208 752 
Q 1469 391 1925 391 
Q 2381 391 2643 752 
Q 2906 1113 2906 1747 
Q 2906 2381 2643 2742 
Q 2381 3103 1925 3103 
Q 1469 3103 1208 2742 
Q 947 2381 947 1747 
z
M 2906 525 
Q 2725 213 2448 61 
Q 2172 -91 1784 -91 
Q 1150 -91 751 415 
Q 353 922 353 1747 
Q 353 2572 751 3078 
Q 1150 3584 1784 3584 
Q 2172 3584 2448 3432 
Q 2725 3281 2906 2969 
L 2906 3500 
L 3481 3500 
L 3481 -1331 
L 2906 -1331 
L 2906 525 
z
" transform="scale(0.015625)"/>
       <path id="DejaVuSans-69" d="M 603 3500 
L 1178 3500 
L 1178 0 
L 603 0 
L 603 3500 
z
M 603 4863 
L 1178 4863 
L 1178 4134 
L 603 4134 
L 603 4863 
z
" transform="scale(0.015625)"/>
       <path id="DejaVuSans-76" d="M 191 3500 
L 800 3500 
L 1894 563 
L 2988 3500 
L 3597 3500 
L 2284 0 
L 1503 0 
L 191 3500 
z
" transform="scale(0.015625)"/>
       <path id="DejaVuSans-61" d="M 2194 1759 
Q 1497 1759 1228 1600 
Q 959 1441 959 1056 
Q 959 750 1161 570 
Q 1363 391 1709 391 
Q 2188 391 2477 730 
Q 2766 1069 2766 1631 
L 2766 1759 
L 2194 1759 
z
M 3341 1997 
L 3341 0 
L 2766 0 
L 2766 531 
Q 2569 213 2275 61 
Q 1981 -91 1556 -91 
Q 1019 -91 701 211 
Q 384 513 384 1019 
Q 384 1609 779 1909 
Q 1175 2209 1959 2209 
L 2766 2209 
L 2766 2266 
Q 2766 2663 2505 2880 
Q 2244 3097 1772 3097 
Q 1472 3097 1187 3025 
Q 903 2953 641 2809 
L 641 3341 
Q 956 3463 1253 3523 
Q 1550 3584 1831 3584 
Q 2591 3584 2966 3190 
Q 3341 2797 3341 1997 
z
" transform="scale(0.015625)"/>
       <path id="DejaVuSans-6c" d="M 603 4863 
L 1178 4863 
L 1178 0 
L 603 0 
L 603 4863 
z
" transform="scale(0.015625)"/>
       <path id="DejaVuSans-6e" d="M 3513 2113 
L 3513 0 
L 2938 0 
L 2938 2094 
Q 2938 2591 2744 2837 
Q 2550 3084 2163 3084 
Q 1697 3084 1428 2787 
Q 1159 2491 1159 1978 
L 1159 0 
L 581 0 
L 581 3500 
L 1159 3500 
L 1159 2956 
Q 1366 3272 1645 3428 
Q 1925 3584 2291 3584 
Q 2894 3584 3203 3211 
Q 3513 2838 3513 2113 
z
" transform="scale(0.015625)"/>
       <path id="DejaVuSans-63" d="M 3122 3366 
L 3122 2828 
Q 2878 2963 2633 3030 
Q 2388 3097 2138 3097 
Q 1578 3097 1268 2742 
Q 959 2388 959 1747 
Q 959 1106 1268 751 
Q 1578 397 2138 397 
Q 2388 397 2633 464 
Q 2878 531 3122 666 
L 3122 134 
Q 2881 22 2623 -34 
Q 2366 -91 2075 -91 
Q 1284 -91 818 406 
Q 353 903 353 1747 
Q 353 2603 823 3093 
Q 1294 3584 2113 3584 
Q 2378 3584 2631 3529 
Q 2884 3475 3122 3366 
z
" transform="scale(0.015625)"/>
       <path id="DejaVuSans-43" d="M 4122 4306 
L 4122 3641 
Q 3803 3938 3442 4084 
Q 3081 4231 2675 4231 
Q 1875 4231 1450 3742 
Q 1025 3253 1025 2328 
Q 1025 1406 1450 917 
Q 1875 428 2675 428 
Q 3081 428 3442 575 
Q 3803 722 4122 1019 
L 4122 359 
Q 3791 134 3420 21 
Q 3050 -91 2638 -91 
Q 1578 -91 968 557 
Q 359 1206 359 2328 
Q 359 3453 968 4101 
Q 1578 4750 2638 4750 
Q 3056 4750 3426 4639 
Q 3797 4528 4122 4306 
z
" transform="scale(0.015625)"/>
       <path id="DejaVuSans-73" d="M 2834 3397 
L 2834 2853 
Q 2591 2978 2328 3040 
Q 2066 3103 1784 3103 
Q 1356 3103 1142 2972 
Q 928 2841 928 2578 
Q 928 2378 1081 2264 
Q 1234 2150 1697 2047 
L 1894 2003 
Q 2506 1872 2764 1633 
Q 3022 1394 3022 966 
Q 3022 478 2636 193 
Q 2250 -91 1575 -91 
Q 1294 -91 989 -36 
Q 684 19 347 128 
L 347 722 
Q 666 556 975 473 
Q 1284 391 1588 391 
Q 1994 391 2212 530 
Q 2431 669 2431 922 
Q 2431 1156 2273 1281 
Q 2116 1406 1581 1522 
L 1381 1569 
Q 847 1681 609 1914 
Q 372 2147 372 2553 
Q 372 3047 722 3315 
Q 1072 3584 1716 3584 
Q 2034 3584 2315 3537 
Q 2597 3491 2834 3397 
z
" transform="scale(0.015625)"/>
       <path id="DejaVuSans-54" d="M -19 4666 
L 3928 4666 
L 3928 4134 
L 2272 4134 
L 2272 0 
L 1638 0 
L 1638 4134 
L -19 4134 
L -19 4666 
z
" transform="scale(0.015625)"/>
       <path id="DejaVuSans-2b" d="M 2944 4013 
L 2944 2272 
L 4684 2272 
L 4684 1741 
L 2944 1741 
L 2944 0 
L 2419 0 
L 2419 1741 
L 678 1741 
L 678 2272 
L 2419 2272 
L 2419 4013 
L 2944 4013 
z
" transform="scale(0.015625)"/>
       <path id="DejaVuSans-74" d="M 1172 4494 
L 1172 3500 
L 2356 3500 
L 2356 3053 
L 1172 3053 
L 1172 1153 
Q 1172 725 1289 603 
Q 1406 481 1766 481 
L 2356 481 
L 2356 0 
L 1766 0 
Q 1100 0 847 248 
Q 594 497 594 1153 
L 594 3053 
L 172 3053 
L 172 3500 
L 594 3500 
L 594 4494 
L 1172 4494 
z
" transform="scale(0.015625)"/>
      </defs>
      <use xlink:href="#DejaVuSans-4e"/>
      <use xlink:href="#DejaVuSans-75" x="74.804688"/>
      <use xlink:href="#DejaVuSans-6d" x="138.183594"/>
      <use xlink:href="#DejaVuSans-62" x="235.595703"/>
      <use xlink:href="#DejaVuSans-65" x="299.072266"/>
      <use xlink:href="#DejaVuSans-72" x="360.595703"/>
      <use xlink:href="#DejaVuSans-20" x="401.708984"/>
      <use xlink:href="#DejaVuSans-6f" x="433.496094"/>
      <use xlink:href="#DejaVuSans-66" x="494.677734"/>
      <use xlink:href="#DejaVuSans-20" x="529.882812"/>
      <use xlink:href="#DejaVuSans-45" x="561.669922"/>
      <use xlink:href="#DejaVuSans-71" x="624.853516"/>
      <use xlink:href="#DejaVuSans-75" x="688.330078"/>
      <use xlink:href="#DejaVuSans-69" x="751.708984"/>
      <use xlink:href="#DejaVuSans-76" x="779.492188"/>
      <use xlink:href="#DejaVuSans-61" x="838.671875"/>
      <use xlink:href="#DejaVuSans-6c" x="899.951172"/>
      <use xlink:href="#DejaVuSans-65" x="927.734375"/>
      <use xlink:href="#DejaVuSans-6e" x="989.257812"/>
      <use xlink:href="#DejaVuSans-63" x="1052.636719"/>
      <use xlink:href="#DejaVuSans-65" x="1107.617188"/>
      <use xlink:href="#DejaVuSans-20" x="1169.140625"/>
      <use xlink:href="#DejaVuSans-43" x="1200.927734"/>
      <use xlink:href="#DejaVuSans-6c" x="1270.751953"/>
      <use xlink:href="#DejaVuSans-61" x="1298.535156"/>
      <use xlink:href="#DejaVuSans-73" x="1359.814453"/>
      <use xlink:href="#DejaVuSans-73" x="1411.914062"/>
      <use xlink:href="#DejaVuSans-65" x="1464.013672"/>
      <use xlink:href="#DejaVuSans-73" x="1525.537109"/>
      <use xlink:href="#DejaVuSans-20" x="1577.636719"/>
      <use xlink:href="#DejaVuSans-54" x="1609.423828"/>
      <use xlink:href="#DejaVuSans-72" x="1655.757812"/>
      <use xlink:href="#DejaVuSans-61" x="1696.871094"/>
      <use xlink:href="#DejaVuSans-69" x="1758.150391"/>
      <use xlink:href="#DejaVuSans-6e" x="1785.933594"/>
      <use xlink:href="#DejaVuSans-2b" x="1849.3125"/>
      <use xlink:href="#DejaVuSans-54" x="1933.101562"/>
      <use xlink:href="#DejaVuSans-65" x="1977.185547"/>
      <use xlink:href="#DejaVuSans-73" x="2038.708984"/>
      <use xlink:href="#DejaVuSans-74" x="2090.808594"/>
     </g>
    </g>
   </g>
   <g id="matplotlib.axis_2">
    <g id="ytick_1">
     <g id="line2d_6">
      <defs>
       <path id="m53f1907960" d="M 0 0 
L -3.5 0 
" style="stroke: #000000; stroke-width: 0.8"/>
      </defs>
      <g>
       <use xlink:href="#m53f1907960" x="46.965625" y="261.216" style="stroke: #000000; stroke-width: 0.8"/>
      </g>
     </g>
     <g id="text_7">
      <!-- 0 -->
      <g transform="translate(33.603125 265.015219) scale(0.1 -0.1)">
       <use xlink:href="#DejaVuSans-30"/>
      </g>
     </g>
    </g>
    <g id="ytick_2">
     <g id="line2d_7">
      <g>
       <use xlink:href="#m53f1907960" x="46.965625" y="212.832" style="stroke: #000000; stroke-width: 0.8"/>
      </g>
     </g>
     <g id="text_8">
      <!-- 20 -->
      <g transform="translate(27.240625 216.631219) scale(0.1 -0.1)">
       <use xlink:href="#DejaVuSans-32"/>
       <use xlink:href="#DejaVuSans-30" x="63.623047"/>
      </g>
     </g>
    </g>
    <g id="ytick_3">
     <g id="line2d_8">
      <g>
       <use xlink:href="#m53f1907960" x="46.965625" y="164.448" style="stroke: #000000; stroke-width: 0.8"/>
      </g>
     </g>
     <g id="text_9">
      <!-- 40 -->
      <g transform="translate(27.240625 168.247219) scale(0.1 -0.1)">
       <use xlink:href="#DejaVuSans-34"/>
       <use xlink:href="#DejaVuSans-30" x="63.623047"/>
      </g>
     </g>
    </g>
    <g id="ytick_4">
     <g id="line2d_9">
      <g>
       <use xlink:href="#m53f1907960" x="46.965625" y="116.064" style="stroke: #000000; stroke-width: 0.8"/>
      </g>
     </g>
     <g id="text_10">
      <!-- 60 -->
      <g transform="translate(27.240625 119.863219) scale(0.1 -0.1)">
       <defs>
        <path id="DejaVuSans-36" d="M 2113 2584 
Q 1688 2584 1439 2293 
Q 1191 2003 1191 1497 
Q 1191 994 1439 701 
Q 1688 409 2113 409 
Q 2538 409 2786 701 
Q 3034 994 3034 1497 
Q 3034 2003 2786 2293 
Q 2538 2584 2113 2584 
z
M 3366 4563 
L 3366 3988 
Q 3128 4100 2886 4159 
Q 2644 4219 2406 4219 
Q 1781 4219 1451 3797 
Q 1122 3375 1075 2522 
Q 1259 2794 1537 2939 
Q 1816 3084 2150 3084 
Q 2853 3084 3261 2657 
Q 3669 2231 3669 1497 
Q 3669 778 3244 343 
Q 2819 -91 2113 -91 
Q 1303 -91 875 529 
Q 447 1150 447 2328 
Q 447 3434 972 4092 
Q 1497 4750 2381 4750 
Q 2619 4750 2861 4703 
Q 3103 4656 3366 4563 
z
" transform="scale(0.015625)"/>
       </defs>
       <use xlink:href="#DejaVuSans-36"/>
       <use xlink:href="#DejaVuSans-30" x="63.623047"/>
      </g>
     </g>
    </g>
    <g id="ytick_5">
     <g id="line2d_10">
      <g>
       <use xlink:href="#m53f1907960" x="46.965625" y="67.68" style="stroke: #000000; stroke-width: 0.8"/>
      </g>
     </g>
     <g id="text_11">
      <!-- 80 -->
      <g transform="translate(27.240625 71.479219) scale(0.1 -0.1)">
       <defs>
        <path id="DejaVuSans-38" d="M 2034 2216 
Q 1584 2216 1326 1975 
Q 1069 1734 1069 1313 
Q 1069 891 1326 650 
Q 1584 409 2034 409 
Q 2484 409 2743 651 
Q 3003 894 3003 1313 
Q 3003 1734 2745 1975 
Q 2488 2216 2034 2216 
z
M 1403 2484 
Q 997 2584 770 2862 
Q 544 3141 544 3541 
Q 544 4100 942 4425 
Q 1341 4750 2034 4750 
Q 2731 4750 3128 4425 
Q 3525 4100 3525 3541 
Q 3525 3141 3298 2862 
Q 3072 2584 2669 2484 
Q 3125 2378 3379 2068 
Q 3634 1759 3634 1313 
Q 3634 634 3220 271 
Q 2806 -91 2034 -91 
Q 1263 -91 848 271 
Q 434 634 434 1313 
Q 434 1759 690 2068 
Q 947 2378 1403 2484 
z
M 1172 3481 
Q 1172 3119 1398 2916 
Q 1625 2713 2034 2713 
Q 2441 2713 2670 2916 
Q 2900 3119 2900 3481 
Q 2900 3844 2670 4047 
Q 2441 4250 2034 4250 
Q 1625 4250 1398 4047 
Q 1172 3844 1172 3481 
z
" transform="scale(0.015625)"/>
       </defs>
       <use xlink:href="#DejaVuSans-38"/>
       <use xlink:href="#DejaVuSans-30" x="63.623047"/>
      </g>
     </g>
    </g>
    <g id="ytick_6">
     <g id="line2d_11">
      <g>
       <use xlink:href="#m53f1907960" x="46.965625" y="19.296" style="stroke: #000000; stroke-width: 0.8"/>
      </g>
     </g>
     <g id="text_12">
      <!-- 100 -->
      <g transform="translate(20.878125 23.095219) scale(0.1 -0.1)">
       <use xlink:href="#DejaVuSans-31"/>
       <use xlink:href="#DejaVuSans-30" x="63.623047"/>
       <use xlink:href="#DejaVuSans-30" x="127.246094"/>
      </g>
     </g>
    </g>
    <g id="text_13">
     <!-- Percentage of Novel Failures Not Covered (PNFNC) -->
     <g transform="translate(14.798438 266.317719) rotate(-90) scale(0.1 -0.1)">
      <defs>
       <path id="DejaVuSans-50" d="M 1259 4147 
L 1259 2394 
L 2053 2394 
Q 2494 2394 2734 2622 
Q 2975 2850 2975 3272 
Q 2975 3691 2734 3919 
Q 2494 4147 2053 4147 
L 1259 4147 
z
M 628 4666 
L 2053 4666 
Q 2838 4666 3239 4311 
Q 3641 3956 3641 3272 
Q 3641 2581 3239 2228 
Q 2838 1875 2053 1875 
L 1259 1875 
L 1259 0 
L 628 0 
L 628 4666 
z
" transform="scale(0.015625)"/>
       <path id="DejaVuSans-67" d="M 2906 1791 
Q 2906 2416 2648 2759 
Q 2391 3103 1925 3103 
Q 1463 3103 1205 2759 
Q 947 2416 947 1791 
Q 947 1169 1205 825 
Q 1463 481 1925 481 
Q 2391 481 2648 825 
Q 2906 1169 2906 1791 
z
M 3481 434 
Q 3481 -459 3084 -895 
Q 2688 -1331 1869 -1331 
Q 1566 -1331 1297 -1286 
Q 1028 -1241 775 -1147 
L 775 -588 
Q 1028 -725 1275 -790 
Q 1522 -856 1778 -856 
Q 2344 -856 2625 -561 
Q 2906 -266 2906 331 
L 2906 616 
Q 2728 306 2450 153 
Q 2172 0 1784 0 
Q 1141 0 747 490 
Q 353 981 353 1791 
Q 353 2603 747 3093 
Q 1141 3584 1784 3584 
Q 2172 3584 2450 3431 
Q 2728 3278 2906 2969 
L 2906 3500 
L 3481 3500 
L 3481 434 
z
" transform="scale(0.015625)"/>
       <path id="DejaVuSans-46" d="M 628 4666 
L 3309 4666 
L 3309 4134 
L 1259 4134 
L 1259 2759 
L 3109 2759 
L 3109 2228 
L 1259 2228 
L 1259 0 
L 628 0 
L 628 4666 
z
" transform="scale(0.015625)"/>
       <path id="DejaVuSans-64" d="M 2906 2969 
L 2906 4863 
L 3481 4863 
L 3481 0 
L 2906 0 
L 2906 525 
Q 2725 213 2448 61 
Q 2172 -91 1784 -91 
Q 1150 -91 751 415 
Q 353 922 353 1747 
Q 353 2572 751 3078 
Q 1150 3584 1784 3584 
Q 2172 3584 2448 3432 
Q 2725 3281 2906 2969 
z
M 947 1747 
Q 947 1113 1208 752 
Q 1469 391 1925 391 
Q 2381 391 2643 752 
Q 2906 1113 2906 1747 
Q 2906 2381 2643 2742 
Q 2381 3103 1925 3103 
Q 1469 3103 1208 2742 
Q 947 2381 947 1747 
z
" transform="scale(0.015625)"/>
       <path id="DejaVuSans-28" d="M 1984 4856 
Q 1566 4138 1362 3434 
Q 1159 2731 1159 2009 
Q 1159 1288 1364 580 
Q 1569 -128 1984 -844 
L 1484 -844 
Q 1016 -109 783 600 
Q 550 1309 550 2009 
Q 550 2706 781 3412 
Q 1013 4119 1484 4856 
L 1984 4856 
z
" transform="scale(0.015625)"/>
       <path id="DejaVuSans-29" d="M 513 4856 
L 1013 4856 
Q 1481 4119 1714 3412 
Q 1947 2706 1947 2009 
Q 1947 1309 1714 600 
Q 1481 -109 1013 -844 
L 513 -844 
Q 928 -128 1133 580 
Q 1338 1288 1338 2009 
Q 1338 2731 1133 3434 
Q 928 4138 513 4856 
z
" transform="scale(0.015625)"/>
      </defs>
      <use xlink:href="#DejaVuSans-50"/>
      <use xlink:href="#DejaVuSans-65" x="56.677734"/>
      <use xlink:href="#DejaVuSans-72" x="118.201172"/>
      <use xlink:href="#DejaVuSans-63" x="157.064453"/>
      <use xlink:href="#DejaVuSans-65" x="212.044922"/>
      <use xlink:href="#DejaVuSans-6e" x="273.568359"/>
      <use xlink:href="#DejaVuSans-74" x="336.947266"/>
      <use xlink:href="#DejaVuSans-61" x="376.15625"/>
      <use xlink:href="#DejaVuSans-67" x="437.435547"/>
      <use xlink:href="#DejaVuSans-65" x="500.912109"/>
      <use xlink:href="#DejaVuSans-20" x="562.435547"/>
      <use xlink:href="#DejaVuSans-6f" x="594.222656"/>
      <use xlink:href="#DejaVuSans-66" x="655.404297"/>
      <use xlink:href="#DejaVuSans-20" x="690.609375"/>
      <use xlink:href="#DejaVuSans-4e" x="722.396484"/>
      <use xlink:href="#DejaVuSans-6f" x="797.201172"/>
      <use xlink:href="#DejaVuSans-76" x="858.382812"/>
      <use xlink:href="#DejaVuSans-65" x="917.5625"/>
      <use xlink:href="#DejaVuSans-6c" x="979.085938"/>
      <use xlink:href="#DejaVuSans-20" x="1006.869141"/>
      <use xlink:href="#DejaVuSans-46" x="1038.65625"/>
      <use xlink:href="#DejaVuSans-61" x="1087.050781"/>
      <use xlink:href="#DejaVuSans-69" x="1148.330078"/>
      <use xlink:href="#DejaVuSans-6c" x="1176.113281"/>
      <use xlink:href="#DejaVuSans-75" x="1203.896484"/>
      <use xlink:href="#DejaVuSans-72" x="1267.275391"/>
      <use xlink:href="#DejaVuSans-65" x="1306.138672"/>
      <use xlink:href="#DejaVuSans-73" x="1367.662109"/>
      <use xlink:href="#DejaVuSans-20" x="1419.761719"/>
      <use xlink:href="#DejaVuSans-4e" x="1451.548828"/>
      <use xlink:href="#DejaVuSans-6f" x="1526.353516"/>
      <use xlink:href="#DejaVuSans-74" x="1587.535156"/>
      <use xlink:href="#DejaVuSans-20" x="1626.744141"/>
      <use xlink:href="#DejaVuSans-43" x="1658.53125"/>
      <use xlink:href="#DejaVuSans-6f" x="1728.355469"/>
      <use xlink:href="#DejaVuSans-76" x="1789.537109"/>
      <use xlink:href="#DejaVuSans-65" x="1848.716797"/>
      <use xlink:href="#DejaVuSans-72" x="1910.240234"/>
      <use xlink:href="#DejaVuSans-65" x="1949.103516"/>
      <use xlink:href="#DejaVuSans-64" x="2010.626953"/>
      <use xlink:href="#DejaVuSans-20" x="2074.103516"/>
      <use xlink:href="#DejaVuSans-28" x="2105.890625"/>
      <use xlink:href="#DejaVuSans-50" x="2144.904297"/>
      <use xlink:href="#DejaVuSans-4e" x="2205.207031"/>
      <use xlink:href="#DejaVuSans-46" x="2280.011719"/>
      <use xlink:href="#DejaVuSans-4e" x="2337.53125"/>
      <use xlink:href="#DejaVuSans-43" x="2412.335938"/>
      <use xlink:href="#DejaVuSans-29" x="2482.160156"/>
     </g>
    </g>
   </g>
   <g id="patch_3">
    <path d="M 46.965625 273.312 
L 46.965625 7.2 
" style="fill: none; stroke: #000000; stroke-width: 0.8; stroke-linejoin: miter; stroke-linecap: square"/>
   </g>
   <g id="patch_4">
    <path d="M 404.085625 273.312 
L 404.085625 7.2 
" style="fill: none; stroke: #000000; stroke-width: 0.8; stroke-linejoin: miter; stroke-linecap: square"/>
   </g>
   <g id="patch_5">
    <path d="M 46.965625 273.312 
L 404.085625 273.312 
" style="fill: none; stroke: #000000; stroke-width: 0.8; stroke-linejoin: miter; stroke-linecap: square"/>
   </g>
   <g id="patch_6">
    <path d="M 46.965625 7.2 
L 404.085625 7.2 
" style="fill: none; stroke: #000000; stroke-width: 0.8; stroke-linejoin: miter; stroke-linecap: square"/>
   </g>
   <g id="legend_1">
    <g id="patch_7">
     <path d="M 74.292031 431.155387 
L 376.759219 431.155387 
Q 378.759219 431.155387 378.759219 429.155387 
L 378.759219 306.9232 
Q 378.759219 304.9232 376.759219 304.9232 
L 74.292031 304.9232 
Q 72.292031 304.9232 72.292031 306.9232 
L 72.292031 429.155387 
Q 72.292031 431.155387 74.292031 431.155387 
z
" style="fill: #ffffff; opacity: 0.8; stroke: #cccccc; stroke-linejoin: miter"/>
    </g>
    <g id="PathCollection_15">
     <g>
      <use xlink:href="#mf3f1beec25" x="86.292031" y="313.896637" style="fill: #d62728; stroke: #d62728"/>
     </g>
    </g>
    <g id="text_14">
     <!-- Entities + Lanes + Rel -->
     <g transform="translate(104.292031 316.521637) scale(0.1 -0.1)">
      <defs>
       <path id="DejaVuSans-4c" d="M 628 4666 
L 1259 4666 
L 1259 531 
L 3531 531 
L 3531 0 
L 628 0 
L 628 4666 
z
" transform="scale(0.015625)"/>
       <path id="DejaVuSans-52" d="M 2841 2188 
Q 3044 2119 3236 1894 
Q 3428 1669 3622 1275 
L 4263 0 
L 3584 0 
L 2988 1197 
Q 2756 1666 2539 1819 
Q 2322 1972 1947 1972 
L 1259 1972 
L 1259 0 
L 628 0 
L 628 4666 
L 2053 4666 
Q 2853 4666 3247 4331 
Q 3641 3997 3641 3322 
Q 3641 2881 3436 2590 
Q 3231 2300 2841 2188 
z
M 1259 4147 
L 1259 2491 
L 2053 2491 
Q 2509 2491 2742 2702 
Q 2975 2913 2975 3322 
Q 2975 3731 2742 3939 
Q 2509 4147 2053 4147 
L 1259 4147 
z
" transform="scale(0.015625)"/>
      </defs>
      <use xlink:href="#DejaVuSans-45"/>
      <use xlink:href="#DejaVuSans-6e" x="63.183594"/>
      <use xlink:href="#DejaVuSans-74" x="126.5625"/>
      <use xlink:href="#DejaVuSans-69" x="165.771484"/>
      <use xlink:href="#DejaVuSans-74" x="193.554688"/>
      <use xlink:href="#DejaVuSans-69" x="232.763672"/>
      <use xlink:href="#DejaVuSans-65" x="260.546875"/>
      <use xlink:href="#DejaVuSans-73" x="322.070312"/>
      <use xlink:href="#DejaVuSans-20" x="374.169922"/>
      <use xlink:href="#DejaVuSans-2b" x="405.957031"/>
      <use xlink:href="#DejaVuSans-20" x="489.746094"/>
      <use xlink:href="#DejaVuSans-4c" x="521.533203"/>
      <use xlink:href="#DejaVuSans-61" x="577.246094"/>
      <use xlink:href="#DejaVuSans-6e" x="638.525391"/>
      <use xlink:href="#DejaVuSans-65" x="701.904297"/>
      <use xlink:href="#DejaVuSans-73" x="763.427734"/>
      <use xlink:href="#DejaVuSans-20" x="815.527344"/>
      <use xlink:href="#DejaVuSans-2b" x="847.314453"/>
      <use xlink:href="#DejaVuSans-20" x="931.103516"/>
      <use xlink:href="#DejaVuSans-52" x="962.890625"/>
      <use xlink:href="#DejaVuSans-65" x="1027.873047"/>
      <use xlink:href="#DejaVuSans-6c" x="1089.396484"/>
     </g>
    </g>
    <g id="PathCollection_16">
     <g>
      <use xlink:href="#me9bbe74e3f" x="86.292031" y="328.574762" style="fill: #d62728; stroke: #d62728"/>
     </g>
    </g>
    <g id="text_15">
     <!-- $ELR$[2] -->
     <g transform="translate(104.292031 331.199762) scale(0.1 -0.1)">
      <defs>
       <path id="DejaVuSans-Oblique-45" d="M 1081 4666 
L 4031 4666 
L 3928 4134 
L 1606 4134 
L 1338 2753 
L 3566 2753 
L 3463 2222 
L 1234 2222 
L 909 531 
L 3284 531 
L 3181 0 
L 172 0 
L 1081 4666 
z
" transform="scale(0.015625)"/>
       <path id="DejaVuSans-Oblique-4c" d="M 1075 4666 
L 1709 4666 
L 909 525 
L 3181 525 
L 3078 0 
L 172 0 
L 1075 4666 
z
" transform="scale(0.015625)"/>
       <path id="DejaVuSans-Oblique-52" d="M 1613 4147 
L 1294 2491 
L 2106 2491 
Q 2584 2491 2879 2755 
Q 3175 3019 3175 3444 
Q 3175 3784 2976 3965 
Q 2778 4147 2406 4147 
L 1613 4147 
z
M 2772 2241 
Q 2972 2194 3105 2009 
Q 3238 1825 3413 1275 
L 3809 0 
L 3144 0 
L 2778 1197 
Q 2638 1659 2453 1815 
Q 2269 1972 1888 1972 
L 1191 1972 
L 806 0 
L 172 0 
L 1081 4666 
L 2503 4666 
Q 3150 4666 3495 4373 
Q 3841 4081 3841 3531 
Q 3841 3044 3547 2687 
Q 3253 2331 2772 2241 
z
" transform="scale(0.015625)"/>
       <path id="DejaVuSans-5b" d="M 550 4863 
L 1875 4863 
L 1875 4416 
L 1125 4416 
L 1125 -397 
L 1875 -397 
L 1875 -844 
L 550 -844 
L 550 4863 
z
" transform="scale(0.015625)"/>
       <path id="DejaVuSans-5d" d="M 1947 4863 
L 1947 -844 
L 622 -844 
L 622 -397 
L 1369 -397 
L 1369 4416 
L 622 4416 
L 622 4863 
L 1947 4863 
z
" transform="scale(0.015625)"/>
      </defs>
      <use xlink:href="#DejaVuSans-Oblique-45" transform="translate(0 0.015625)"/>
      <use xlink:href="#DejaVuSans-Oblique-4c" transform="translate(63.183594 0.015625)"/>
      <use xlink:href="#DejaVuSans-Oblique-52" transform="translate(118.896484 0.015625)"/>
      <use xlink:href="#DejaVuSans-5b" transform="translate(188.378906 0.015625)"/>
      <use xlink:href="#DejaVuSans-32" transform="translate(227.392578 0.015625)"/>
      <use xlink:href="#DejaVuSans-5d" transform="translate(291.015625 0.015625)"/>
     </g>
    </g>
    <g id="PathCollection_17">
     <g>
      <use xlink:href="#m7c820e1e9c" x="86.292031" y="343.252887" style="fill: #d62728; stroke: #d62728"/>
     </g>
    </g>
    <g id="text_16">
     <!-- $ELR$[5] -->
     <g transform="translate(104.292031 345.877887) scale(0.1 -0.1)">
      <defs>
       <path id="DejaVuSans-35" d="M 691 4666 
L 3169 4666 
L 3169 4134 
L 1269 4134 
L 1269 2991 
Q 1406 3038 1543 3061 
Q 1681 3084 1819 3084 
Q 2600 3084 3056 2656 
Q 3513 2228 3513 1497 
Q 3513 744 3044 326 
Q 2575 -91 1722 -91 
Q 1428 -91 1123 -41 
Q 819 9 494 109 
L 494 744 
Q 775 591 1075 516 
Q 1375 441 1709 441 
Q 2250 441 2565 725 
Q 2881 1009 2881 1497 
Q 2881 1984 2565 2268 
Q 2250 2553 1709 2553 
Q 1456 2553 1204 2497 
Q 953 2441 691 2322 
L 691 4666 
z
" transform="scale(0.015625)"/>
      </defs>
      <use xlink:href="#DejaVuSans-Oblique-45" transform="translate(0 0.015625)"/>
      <use xlink:href="#DejaVuSans-Oblique-4c" transform="translate(63.183594 0.015625)"/>
      <use xlink:href="#DejaVuSans-Oblique-52" transform="translate(118.896484 0.015625)"/>
      <use xlink:href="#DejaVuSans-5b" transform="translate(188.378906 0.015625)"/>
      <use xlink:href="#DejaVuSans-35" transform="translate(227.392578 0.015625)"/>
      <use xlink:href="#DejaVuSans-5d" transform="translate(291.015625 0.015625)"/>
     </g>
    </g>
    <g id="PathCollection_18">
     <g>
      <use xlink:href="#m3aeae7ae13" x="86.292031" y="357.931012" style="fill: #d62728; stroke: #d62728"/>
     </g>
    </g>
    <g id="text_17">
     <!-- $ELR$[10] -->
     <g transform="translate(104.292031 360.556012) scale(0.1 -0.1)">
      <use xlink:href="#DejaVuSans-Oblique-45" transform="translate(0 0.015625)"/>
      <use xlink:href="#DejaVuSans-Oblique-4c" transform="translate(63.183594 0.015625)"/>
      <use xlink:href="#DejaVuSans-Oblique-52" transform="translate(118.896484 0.015625)"/>
      <use xlink:href="#DejaVuSans-5b" transform="translate(188.378906 0.015625)"/>
      <use xlink:href="#DejaVuSans-31" transform="translate(227.392578 0.015625)"/>
      <use xlink:href="#DejaVuSans-30" transform="translate(291.015625 0.015625)"/>
      <use xlink:href="#DejaVuSans-5d" transform="translate(354.638672 0.015625)"/>
     </g>
    </g>
    <g id="PathCollection_19">
     <g>
      <use xlink:href="#m5343bdfd34" x="86.292031" y="372.609137" style="fill: #9467bd; stroke: #9467bd"/>
     </g>
    </g>
    <g id="text_18">
     <!-- Entities + Road Structure -->
     <g transform="translate(104.292031 375.234137) scale(0.1 -0.1)">
      <defs>
       <path id="DejaVuSans-53" d="M 3425 4513 
L 3425 3897 
Q 3066 4069 2747 4153 
Q 2428 4238 2131 4238 
Q 1616 4238 1336 4038 
Q 1056 3838 1056 3469 
Q 1056 3159 1242 3001 
Q 1428 2844 1947 2747 
L 2328 2669 
Q 3034 2534 3370 2195 
Q 3706 1856 3706 1288 
Q 3706 609 3251 259 
Q 2797 -91 1919 -91 
Q 1588 -91 1214 -16 
Q 841 59 441 206 
L 441 856 
Q 825 641 1194 531 
Q 1563 422 1919 422 
Q 2459 422 2753 634 
Q 3047 847 3047 1241 
Q 3047 1584 2836 1778 
Q 2625 1972 2144 2069 
L 1759 2144 
Q 1053 2284 737 2584 
Q 422 2884 422 3419 
Q 422 4038 858 4394 
Q 1294 4750 2059 4750 
Q 2388 4750 2728 4690 
Q 3069 4631 3425 4513 
z
" transform="scale(0.015625)"/>
      </defs>
      <use xlink:href="#DejaVuSans-45"/>
      <use xlink:href="#DejaVuSans-6e" x="63.183594"/>
      <use xlink:href="#DejaVuSans-74" x="126.5625"/>
      <use xlink:href="#DejaVuSans-69" x="165.771484"/>
      <use xlink:href="#DejaVuSans-74" x="193.554688"/>
      <use xlink:href="#DejaVuSans-69" x="232.763672"/>
      <use xlink:href="#DejaVuSans-65" x="260.546875"/>
      <use xlink:href="#DejaVuSans-73" x="322.070312"/>
      <use xlink:href="#DejaVuSans-20" x="374.169922"/>
      <use xlink:href="#DejaVuSans-2b" x="405.957031"/>
      <use xlink:href="#DejaVuSans-20" x="489.746094"/>
      <use xlink:href="#DejaVuSans-52" x="521.533203"/>
      <use xlink:href="#DejaVuSans-6f" x="586.515625"/>
      <use xlink:href="#DejaVuSans-61" x="647.697266"/>
      <use xlink:href="#DejaVuSans-64" x="708.976562"/>
      <use xlink:href="#DejaVuSans-20" x="772.453125"/>
      <use xlink:href="#DejaVuSans-53" x="804.240234"/>
      <use xlink:href="#DejaVuSans-74" x="867.716797"/>
      <use xlink:href="#DejaVuSans-72" x="906.925781"/>
      <use xlink:href="#DejaVuSans-75" x="948.039062"/>
      <use xlink:href="#DejaVuSans-63" x="1011.417969"/>
      <use xlink:href="#DejaVuSans-74" x="1066.398438"/>
      <use xlink:href="#DejaVuSans-75" x="1105.607422"/>
      <use xlink:href="#DejaVuSans-72" x="1168.986328"/>
      <use xlink:href="#DejaVuSans-65" x="1207.849609"/>
     </g>
    </g>
    <g id="PathCollection_20">
     <g>
      <use xlink:href="#mc057d803d5" x="86.292031" y="387.287262" style="fill: #9467bd; stroke: #9467bd"/>
     </g>
    </g>
    <g id="text_19">
     <!-- $ERS$[2] -->
     <g transform="translate(104.292031 389.912262) scale(0.1 -0.1)">
      <defs>
       <path id="DejaVuSans-Oblique-53" d="M 3859 4513 
L 3738 3897 
Q 3422 4066 3111 4152 
Q 2800 4238 2509 4238 
Q 1944 4238 1609 3991 
Q 1275 3744 1275 3334 
Q 1275 3109 1398 2989 
Q 1522 2869 2034 2731 
L 2413 2638 
Q 3053 2472 3303 2217 
Q 3553 1963 3553 1503 
Q 3553 797 2998 353 
Q 2444 -91 1538 -91 
Q 1166 -91 791 -17 
Q 416 56 38 206 
L 166 856 
Q 513 641 861 531 
Q 1209 422 1556 422 
Q 2147 422 2503 684 
Q 2859 947 2859 1369 
Q 2859 1650 2717 1795 
Q 2575 1941 2106 2059 
L 1728 2156 
Q 1081 2325 845 2545 
Q 609 2766 609 3163 
Q 609 3859 1145 4304 
Q 1681 4750 2541 4750 
Q 2875 4750 3203 4690 
Q 3531 4631 3859 4513 
z
" transform="scale(0.015625)"/>
      </defs>
      <use xlink:href="#DejaVuSans-Oblique-45" transform="translate(0 0.015625)"/>
      <use xlink:href="#DejaVuSans-Oblique-52" transform="translate(63.183594 0.015625)"/>
      <use xlink:href="#DejaVuSans-Oblique-53" transform="translate(132.666016 0.015625)"/>
      <use xlink:href="#DejaVuSans-5b" transform="translate(196.142578 0.015625)"/>
      <use xlink:href="#DejaVuSans-32" transform="translate(235.15625 0.015625)"/>
      <use xlink:href="#DejaVuSans-5d" transform="translate(298.779297 0.015625)"/>
     </g>
    </g>
    <g id="PathCollection_21">
     <g>
      <use xlink:href="#m01cbab6f46" x="86.292031" y="401.965387" style="fill: #9467bd; stroke: #9467bd"/>
     </g>
    </g>
    <g id="text_20">
     <!-- $ERS$[5] -->
     <g transform="translate(104.292031 404.590387) scale(0.1 -0.1)">
      <use xlink:href="#DejaVuSans-Oblique-45" transform="translate(0 0.015625)"/>
      <use xlink:href="#DejaVuSans-Oblique-52" transform="translate(63.183594 0.015625)"/>
      <use xlink:href="#DejaVuSans-Oblique-53" transform="translate(132.666016 0.015625)"/>
      <use xlink:href="#DejaVuSans-5b" transform="translate(196.142578 0.015625)"/>
      <use xlink:href="#DejaVuSans-35" transform="translate(235.15625 0.015625)"/>
      <use xlink:href="#DejaVuSans-5d" transform="translate(298.779297 0.015625)"/>
     </g>
    </g>
    <g id="PathCollection_22">
     <g>
      <use xlink:href="#mc1cb187dbd" x="261.227969" y="313.896637" style="fill: #9467bd; stroke: #9467bd"/>
     </g>
    </g>
    <g id="text_21">
     <!-- $ERS$[10] -->
     <g transform="translate(279.227969 316.521637) scale(0.1 -0.1)">
      <use xlink:href="#DejaVuSans-Oblique-45" transform="translate(0 0.015625)"/>
      <use xlink:href="#DejaVuSans-Oblique-52" transform="translate(63.183594 0.015625)"/>
      <use xlink:href="#DejaVuSans-Oblique-53" transform="translate(132.666016 0.015625)"/>
      <use xlink:href="#DejaVuSans-5b" transform="translate(196.142578 0.015625)"/>
      <use xlink:href="#DejaVuSans-31" transform="translate(235.15625 0.015625)"/>
      <use xlink:href="#DejaVuSans-30" transform="translate(298.779297 0.015625)"/>
      <use xlink:href="#DejaVuSans-5d" transform="translate(362.402344 0.015625)"/>
     </g>
    </g>
    <g id="PathCollection_23">
     <g>
      <use xlink:href="#mab4484c167" x="261.227969" y="330.076325" style="fill: #7f7f7f; stroke: #7f7f7f"/>
     </g>
    </g>
    <g id="text_22">
     <!-- $\Psi_{10}^{*}$ (PhysCov) -->
     <g transform="translate(279.227969 332.701325) scale(0.1 -0.1)">
      <defs>
       <path id="DejaVuSans-3a8" d="M 2206 0 
Q 2209 419 2206 969 
Q 1538 969 950 1625 
Q 375 2263 359 3388 
L 359 4666 
L 1025 4666 
L 1025 3388 
Q 1025 2506 1431 1994 
Q 1775 1556 2206 1513 
L 2206 4666 
L 2838 4666 
L 2838 1513 
Q 3269 1556 3613 1994 
Q 4019 2506 4019 3388 
L 4019 4666 
L 4684 4666 
L 4684 3388 
Q 4669 2263 4094 1625 
Q 3506 969 2838 969 
Q 2834 744 2838 0 
L 2206 0 
z
" transform="scale(0.015625)"/>
       <path id="DejaVuSans-2a" d="M 3009 3897 
L 1888 3291 
L 3009 2681 
L 2828 2375 
L 1778 3009 
L 1778 1831 
L 1422 1831 
L 1422 3009 
L 372 2375 
L 191 2681 
L 1313 3291 
L 191 3897 
L 372 4206 
L 1422 3572 
L 1422 4750 
L 1778 4750 
L 1778 3572 
L 2828 4206 
L 3009 3897 
z
" transform="scale(0.015625)"/>
       <path id="DejaVuSans-68" d="M 3513 2113 
L 3513 0 
L 2938 0 
L 2938 2094 
Q 2938 2591 2744 2837 
Q 2550 3084 2163 3084 
Q 1697 3084 1428 2787 
Q 1159 2491 1159 1978 
L 1159 0 
L 581 0 
L 581 4863 
L 1159 4863 
L 1159 2956 
Q 1366 3272 1645 3428 
Q 1925 3584 2291 3584 
Q 2894 3584 3203 3211 
Q 3513 2838 3513 2113 
z
" transform="scale(0.015625)"/>
       <path id="DejaVuSans-79" d="M 2059 -325 
Q 1816 -950 1584 -1140 
Q 1353 -1331 966 -1331 
L 506 -1331 
L 506 -850 
L 844 -850 
Q 1081 -850 1212 -737 
Q 1344 -625 1503 -206 
L 1606 56 
L 191 3500 
L 800 3500 
L 1894 763 
L 2988 3500 
L 3597 3500 
L 2059 -325 
z
" transform="scale(0.015625)"/>
      </defs>
      <use xlink:href="#DejaVuSans-3a8" transform="translate(0 0.765625)"/>
      <use xlink:href="#DejaVuSans-2a" transform="translate(79.667969 39.046875) scale(0.7)"/>
      <use xlink:href="#DejaVuSans-31" transform="translate(79.667969 -26.578125) scale(0.7)"/>
      <use xlink:href="#DejaVuSans-30" transform="translate(124.204102 -26.578125) scale(0.7)"/>
      <use xlink:href="#DejaVuSans-20" transform="translate(171.474609 0.765625)"/>
      <use xlink:href="#DejaVuSans-28" transform="translate(203.261719 0.765625)"/>
      <use xlink:href="#DejaVuSans-50" transform="translate(242.275391 0.765625)"/>
      <use xlink:href="#DejaVuSans-68" transform="translate(302.578125 0.765625)"/>
      <use xlink:href="#DejaVuSans-79" transform="translate(365.957031 0.765625)"/>
      <use xlink:href="#DejaVuSans-73" transform="translate(425.136719 0.765625)"/>
      <use xlink:href="#DejaVuSans-43" transform="translate(477.236328 0.765625)"/>
      <use xlink:href="#DejaVuSans-6f" transform="translate(547.060547 0.765625)"/>
      <use xlink:href="#DejaVuSans-76" transform="translate(608.242188 0.765625)"/>
      <use xlink:href="#DejaVuSans-29" transform="translate(667.421875 0.765625)"/>
     </g>
    </g>
    <g id="PathCollection_24">
     <g>
      <use xlink:href="#m5902936f13" x="261.227969" y="347.076325" style="fill: #7f7f7f; stroke: #7f7f7f"/>
     </g>
    </g>
    <g id="text_23">
     <!-- $\Psi_{10}^{*}[2]$ (PhysCov) -->
     <g transform="translate(279.227969 349.701325) scale(0.1 -0.1)">
      <use xlink:href="#DejaVuSans-3a8" transform="translate(0 0.765625)"/>
      <use xlink:href="#DejaVuSans-2a" transform="translate(79.667969 39.046875) scale(0.7)"/>
      <use xlink:href="#DejaVuSans-31" transform="translate(79.667969 -26.578125) scale(0.7)"/>
      <use xlink:href="#DejaVuSans-30" transform="translate(124.204102 -26.578125) scale(0.7)"/>
      <use xlink:href="#DejaVuSans-5b" transform="translate(171.474609 0.765625)"/>
      <use xlink:href="#DejaVuSans-32" transform="translate(210.488281 0.765625)"/>
      <use xlink:href="#DejaVuSans-5d" transform="translate(274.111328 0.765625)"/>
      <use xlink:href="#DejaVuSans-20" transform="translate(313.125 0.765625)"/>
      <use xlink:href="#DejaVuSans-28" transform="translate(344.912109 0.765625)"/>
      <use xlink:href="#DejaVuSans-50" transform="translate(383.925781 0.765625)"/>
      <use xlink:href="#DejaVuSans-68" transform="translate(444.228516 0.765625)"/>
      <use xlink:href="#DejaVuSans-79" transform="translate(507.607422 0.765625)"/>
      <use xlink:href="#DejaVuSans-73" transform="translate(566.787109 0.765625)"/>
      <use xlink:href="#DejaVuSans-43" transform="translate(618.886719 0.765625)"/>
      <use xlink:href="#DejaVuSans-6f" transform="translate(688.710938 0.765625)"/>
      <use xlink:href="#DejaVuSans-76" transform="translate(749.892578 0.765625)"/>
      <use xlink:href="#DejaVuSans-29" transform="translate(809.072266 0.765625)"/>
     </g>
    </g>
    <g id="PathCollection_25">
     <g>
      <use xlink:href="#m47534adb05" x="261.227969" y="364.076325" style="fill: #7f7f7f; stroke: #7f7f7f"/>
     </g>
    </g>
    <g id="text_24">
     <!-- $\Psi_{10}^{*}[5]$ (PhysCov) -->
     <g transform="translate(279.227969 366.701325) scale(0.1 -0.1)">
      <use xlink:href="#DejaVuSans-3a8" transform="translate(0 0.765625)"/>
      <use xlink:href="#DejaVuSans-2a" transform="translate(79.667969 39.046875) scale(0.7)"/>
      <use xlink:href="#DejaVuSans-31" transform="translate(79.667969 -26.578125) scale(0.7)"/>
      <use xlink:href="#DejaVuSans-30" transform="translate(124.204102 -26.578125) scale(0.7)"/>
      <use xlink:href="#DejaVuSans-5b" transform="translate(171.474609 0.765625)"/>
      <use xlink:href="#DejaVuSans-35" transform="translate(210.488281 0.765625)"/>
      <use xlink:href="#DejaVuSans-5d" transform="translate(274.111328 0.765625)"/>
      <use xlink:href="#DejaVuSans-20" transform="translate(313.125 0.765625)"/>
      <use xlink:href="#DejaVuSans-28" transform="translate(344.912109 0.765625)"/>
      <use xlink:href="#DejaVuSans-50" transform="translate(383.925781 0.765625)"/>
      <use xlink:href="#DejaVuSans-68" transform="translate(444.228516 0.765625)"/>
      <use xlink:href="#DejaVuSans-79" transform="translate(507.607422 0.765625)"/>
      <use xlink:href="#DejaVuSans-73" transform="translate(566.787109 0.765625)"/>
      <use xlink:href="#DejaVuSans-43" transform="translate(618.886719 0.765625)"/>
      <use xlink:href="#DejaVuSans-6f" transform="translate(688.710938 0.765625)"/>
      <use xlink:href="#DejaVuSans-76" transform="translate(749.892578 0.765625)"/>
      <use xlink:href="#DejaVuSans-29" transform="translate(809.072266 0.765625)"/>
     </g>
    </g>
    <g id="PathCollection_26">
     <g>
      <use xlink:href="#mb8946b889d" x="261.227969" y="381.076325" style="fill: #7f7f7f; stroke: #7f7f7f"/>
     </g>
    </g>
    <g id="text_25">
     <!-- $\Psi_{10}^{*}[10]$ (PhysCov) -->
     <g transform="translate(279.227969 383.701325) scale(0.1 -0.1)">
      <use xlink:href="#DejaVuSans-3a8" transform="translate(0 0.765625)"/>
      <use xlink:href="#DejaVuSans-2a" transform="translate(79.667969 39.046875) scale(0.7)"/>
      <use xlink:href="#DejaVuSans-31" transform="translate(79.667969 -26.578125) scale(0.7)"/>
      <use xlink:href="#DejaVuSans-30" transform="translate(124.204102 -26.578125) scale(0.7)"/>
      <use xlink:href="#DejaVuSans-5b" transform="translate(171.474609 0.765625)"/>
      <use xlink:href="#DejaVuSans-31" transform="translate(210.488281 0.765625)"/>
      <use xlink:href="#DejaVuSans-30" transform="translate(274.111328 0.765625)"/>
      <use xlink:href="#DejaVuSans-5d" transform="translate(337.734375 0.765625)"/>
      <use xlink:href="#DejaVuSans-20" transform="translate(376.748047 0.765625)"/>
      <use xlink:href="#DejaVuSans-28" transform="translate(408.535156 0.765625)"/>
      <use xlink:href="#DejaVuSans-50" transform="translate(447.548828 0.765625)"/>
      <use xlink:href="#DejaVuSans-68" transform="translate(507.851562 0.765625)"/>
      <use xlink:href="#DejaVuSans-79" transform="translate(571.230469 0.765625)"/>
      <use xlink:href="#DejaVuSans-73" transform="translate(630.410156 0.765625)"/>
      <use xlink:href="#DejaVuSans-43" transform="translate(682.509766 0.765625)"/>
      <use xlink:href="#DejaVuSans-6f" transform="translate(752.333984 0.765625)"/>
      <use xlink:href="#DejaVuSans-76" transform="translate(813.515625 0.765625)"/>
      <use xlink:href="#DejaVuSans-29" transform="translate(872.695312 0.765625)"/>
     </g>
    </g>
    <g id="PathCollection_27">
     <g>
      <use xlink:href="#m9c79781ebf" x="261.227969" y="396.574762" style="stroke: #000000; stroke-width: 1.5"/>
     </g>
    </g>
    <g id="text_26">
     <!-- Random Clustering -->
     <g transform="translate(279.227969 399.199762) scale(0.1 -0.1)">
      <use xlink:href="#DejaVuSans-52"/>
      <use xlink:href="#DejaVuSans-61" x="67.232422"/>
      <use xlink:href="#DejaVuSans-6e" x="128.511719"/>
      <use xlink:href="#DejaVuSans-64" x="191.890625"/>
      <use xlink:href="#DejaVuSans-6f" x="255.367188"/>
      <use xlink:href="#DejaVuSans-6d" x="316.548828"/>
      <use xlink:href="#DejaVuSans-20" x="413.960938"/>
      <use xlink:href="#DejaVuSans-43" x="445.748047"/>
      <use xlink:href="#DejaVuSans-6c" x="515.572266"/>
      <use xlink:href="#DejaVuSans-75" x="543.355469"/>
      <use xlink:href="#DejaVuSans-73" x="606.734375"/>
      <use xlink:href="#DejaVuSans-74" x="658.833984"/>
      <use xlink:href="#DejaVuSans-65" x="698.042969"/>
      <use xlink:href="#DejaVuSans-72" x="759.566406"/>
      <use xlink:href="#DejaVuSans-69" x="800.679688"/>
      <use xlink:href="#DejaVuSans-6e" x="828.462891"/>
      <use xlink:href="#DejaVuSans-67" x="891.841797"/>
     </g>
    </g>
    <g id="PathCollection_28">
     <g>
      <use xlink:href="#m8c7f926924" x="261.227969" y="417.891637" style="stroke: #000000"/>
     </g>
    </g>
    <g id="text_27">
     <!-- All Data Unique -->
     <g transform="translate(279.227969 413.877887) scale(0.1 -0.1)">
      <defs>
       <path id="DejaVuSans-41" d="M 2188 4044 
L 1331 1722 
L 3047 1722 
L 2188 4044 
z
M 1831 4666 
L 2547 4666 
L 4325 0 
L 3669 0 
L 3244 1197 
L 1141 1197 
L 716 0 
L 50 0 
L 1831 4666 
z
" transform="scale(0.015625)"/>
       <path id="DejaVuSans-44" d="M 1259 4147 
L 1259 519 
L 2022 519 
Q 2988 519 3436 956 
Q 3884 1394 3884 2338 
Q 3884 3275 3436 3711 
Q 2988 4147 2022 4147 
L 1259 4147 
z
M 628 4666 
L 1925 4666 
Q 3281 4666 3915 4102 
Q 4550 3538 4550 2338 
Q 4550 1131 3912 565 
Q 3275 0 1925 0 
L 628 0 
L 628 4666 
z
" transform="scale(0.015625)"/>
       <path id="DejaVuSans-55" d="M 556 4666 
L 1191 4666 
L 1191 1831 
Q 1191 1081 1462 751 
Q 1734 422 2344 422 
Q 2950 422 3222 751 
Q 3494 1081 3494 1831 
L 3494 4666 
L 4128 4666 
L 4128 1753 
Q 4128 841 3676 375 
Q 3225 -91 2344 -91 
Q 1459 -91 1007 375 
Q 556 841 556 1753 
L 556 4666 
z
" transform="scale(0.015625)"/>
      </defs>
      <use xlink:href="#DejaVuSans-41"/>
      <use xlink:href="#DejaVuSans-6c" x="68.408203"/>
      <use xlink:href="#DejaVuSans-6c" x="96.191406"/>
      <use xlink:href="#DejaVuSans-20" x="123.974609"/>
      <use xlink:href="#DejaVuSans-44" x="155.761719"/>
      <use xlink:href="#DejaVuSans-61" x="232.763672"/>
      <use xlink:href="#DejaVuSans-74" x="294.042969"/>
      <use xlink:href="#DejaVuSans-61" x="333.251953"/>
      <use xlink:href="#DejaVuSans-20" x="394.53125"/>
      <use xlink:href="#DejaVuSans-55" x="426.318359"/>
      <use xlink:href="#DejaVuSans-6e" x="499.511719"/>
      <use xlink:href="#DejaVuSans-69" x="562.890625"/>
      <use xlink:href="#DejaVuSans-71" x="590.673828"/>
      <use xlink:href="#DejaVuSans-75" x="654.150391"/>
      <use xlink:href="#DejaVuSans-65" x="717.529297"/>
     </g>
     <!-- (Trivial Solution) -->
     <g transform="translate(279.227969 425.0757) scale(0.1 -0.1)">
      <use xlink:href="#DejaVuSans-28"/>
      <use xlink:href="#DejaVuSans-54" x="39.013672"/>
      <use xlink:href="#DejaVuSans-72" x="85.347656"/>
      <use xlink:href="#DejaVuSans-69" x="126.460938"/>
      <use xlink:href="#DejaVuSans-76" x="154.244141"/>
      <use xlink:href="#DejaVuSans-69" x="213.423828"/>
      <use xlink:href="#DejaVuSans-61" x="241.207031"/>
      <use xlink:href="#DejaVuSans-6c" x="302.486328"/>
      <use xlink:href="#DejaVuSans-20" x="330.269531"/>
      <use xlink:href="#DejaVuSans-53" x="362.056641"/>
      <use xlink:href="#DejaVuSans-6f" x="425.533203"/>
      <use xlink:href="#DejaVuSans-6c" x="486.714844"/>
      <use xlink:href="#DejaVuSans-75" x="514.498047"/>
      <use xlink:href="#DejaVuSans-74" x="577.876953"/>
      <use xlink:href="#DejaVuSans-69" x="617.085938"/>
      <use xlink:href="#DejaVuSans-6f" x="644.869141"/>
      <use xlink:href="#DejaVuSans-6e" x="706.050781"/>
      <use xlink:href="#DejaVuSans-29" x="769.429688"/>
     </g>
    </g>
   </g>
  </g>
 </g>
 <defs>
  <clipPath id="p1c1e204992">
   <rect x="46.965625" y="7.2" width="357.12" height="266.112"/>
  </clipPath>
 </defs>
</svg>
